<svg width="29" height="29" viewBox="0 0 29 29" fill="none" xmlns="http://www.w3.org/2000/svg">
<g clip-path="url(#clip0_0_8)">
<path d="M5.89729 3.01772H16.4855C17.9705 3.01772 19.1876 4.26392 19.1876 5.81782V16.759C19.1876 18.3129 17.9705 19.5591 16.4855 19.5591H5.89729C4.41231 19.5591 3.19522 18.3129 3.19522 16.759V5.81782C3.19522 4.26392 4.41231 3.01772 5.89729 3.01772ZM5.89729 0.715967C3.15891 0.715967 0.952295 3.0076 0.952295 5.81782V16.759C0.952295 19.5692 3.15891 21.8609 5.89729 21.8609H16.4855C19.2239 21.8609 21.4305 19.5692 21.4305 16.759V5.81782C21.4305 3.0076 19.2239 0.715967 16.4855 0.715967H5.89729Z" fill="white" stroke="white" stroke-width="0.478223" stroke-linejoin="round"/>
<path d="M10.0038 20.0686C10.0038 19.9366 9.89676 19.8295 9.76471 19.8295H8C7.86794 19.8295 7.76089 19.9366 7.76089 20.0686V22.8039C7.76089 25.6141 9.96751 27.9058 12.7059 27.9058H23.2941C26.0325 27.9058 28.2391 25.6141 28.2391 22.8039V11.8627C28.2391 9.05252 26.0325 6.76089 23.2941 6.76089H20.3529C20.2209 6.76089 20.1138 6.86794 20.1138 7V8.82353C20.1138 8.95559 20.2209 9.06264 20.3529 9.06264H23.2941C24.7791 9.06264 25.9962 10.3088 25.9962 11.8627V22.8039C25.9962 24.3578 24.7791 25.604 23.2941 25.604H12.7059C11.2209 25.604 10.0038 24.3578 10.0038 22.8039V20.0686Z" fill="white" stroke="white" stroke-width="0.478223" stroke-linejoin="round"/>
</g>
<defs>
<clipPath id="clip0_0_8">
<rect width="29" height="29" fill="white"/>
</clipPath>
</defs>
</svg>
