<svg width="100" height="100" viewBox="0 0 100 100" fill="none" xmlns="http://www.w3.org/2000/svg">
<path fill-rule="evenodd" clip-rule="evenodd" d="M49.9999 100C43.2505 100 36.7024 98.6778 30.5373 96.0702C24.583 93.5517 19.2363 89.9468 14.6449 85.3554C10.0534 80.7642 6.44855 75.4169 3.93011 69.4629C1.32215 63.2975 0 56.7491 0 50C0 43.2509 1.32215 36.7025 3.92984 30.5374C6.44828 24.5833 10.0531 19.2364 14.6446 14.6446C19.2361 10.0532 24.583 6.4483 30.537 3.92985C36.7024 1.32216 43.2508 0 49.9999 0C54.1896 0 58.3535 0.519477 62.3761 1.54405C66.2824 2.53879 70.0665 4.01204 73.6237 5.92231C74.384 6.33057 74.6691 7.27783 74.2609 8.0382C73.8526 8.79856 72.9053 9.08393 72.145 8.6754C65.3842 5.04422 57.7266 3.125 49.9999 3.125C24.153 3.125 3.12499 24.1531 3.12499 50C3.12499 75.8469 24.153 96.875 49.9999 96.875C75.8467 96.875 96.8747 75.8469 96.8747 50C96.8747 42.2732 94.9555 34.6153 91.3244 27.8545C90.9161 27.0942 91.2012 26.1469 91.9616 25.7387C92.7219 25.3304 93.6692 25.6158 94.0774 26.3759C95.988 29.933 97.461 33.7174 98.456 37.6237C99.4805 41.6466 100 45.8105 100 50C100 56.7491 98.6778 63.2975 96.0702 69.4626C93.5517 75.4167 89.9469 80.7636 85.3554 85.3551C80.7642 89.9466 75.417 93.5514 69.463 96.0699C63.2974 98.6778 56.7492 100 49.9999 100Z" fill="white"/>
<path fill-rule="evenodd" clip-rule="evenodd" d="M50 47.1394C42.7989 47.1394 36.9404 41.2809 36.9404 34.0798C36.9404 26.8787 42.7989 21.0202 50 21.0202C57.201 21.0202 63.0596 26.8787 63.0596 34.0798C63.0596 41.2809 57.201 47.1394 50 47.1394ZM50 24.1454C44.522 24.1454 40.0654 28.6021 40.0654 34.0801C40.0654 39.558 44.522 44.0147 50 44.0147C55.4779 44.0147 59.9346 39.558 59.9346 34.0801C59.9346 28.6021 55.4779 24.1454 50 24.1454Z" fill="white"/>
<path fill-rule="evenodd" clip-rule="evenodd" d="M68.0508 78.9799H31.949C27.2856 78.9799 23.4917 75.1859 23.4917 70.5226C23.4917 66.9448 24.1929 63.4732 25.5756 60.2041C26.9107 57.0474 28.8218 54.2126 31.2559 51.7786C33.6897 49.3445 36.5244 47.4334 39.6812 46.0982C42.9502 44.7153 46.4219 44.0143 49.9999 44.0143C53.5779 44.0143 57.0496 44.7156 60.3186 46.0982C63.4753 47.4334 66.3101 49.3445 68.7439 51.7786C71.1779 54.2126 73.0887 57.0471 74.4242 60.2041C75.8068 63.4732 76.508 66.9448 76.508 70.5226C76.5078 75.1859 72.7141 78.9799 68.0508 78.9799ZM49.9999 47.1393C37.1063 47.1393 26.6167 57.629 26.6167 70.5226C26.6167 73.4629 29.0087 75.8546 31.949 75.8546H68.0505C70.9908 75.8546 73.3828 73.4626 73.3828 70.5223C73.3828 57.629 62.8934 47.1393 49.9999 47.1393Z" fill="white"/>
<path fill-rule="evenodd" clip-rule="evenodd" d="M84.2703 21.6932C83.4074 21.6932 82.7078 20.9936 82.7078 20.1307V11.3284C82.7078 10.4655 83.4074 9.76589 84.2703 9.76589C85.1332 9.76589 85.8328 10.4655 85.8328 11.3284V20.1307C85.8328 20.9936 85.1332 21.6932 84.2703 21.6932Z" fill="white"/>
<path fill-rule="evenodd" clip-rule="evenodd" d="M88.6715 17.2917H79.8691C79.0062 17.2917 78.3066 16.5921 78.3066 15.7292C78.3066 14.8663 79.0062 14.1667 79.8691 14.1667H88.6715C89.5344 14.1667 90.234 14.8663 90.234 15.7292C90.234 16.5924 89.5344 17.2917 88.6715 17.2917Z" fill="white"/>
<path fill-rule="evenodd" clip-rule="evenodd" d="M84.2703 31.4591C80.0686 31.4591 76.1187 29.8231 73.1478 26.8522C70.1769 23.8813 68.5409 19.9311 68.5409 15.7297C68.5409 11.5283 70.1769 7.57812 73.1478 4.6072C76.1187 1.63629 80.0686 0 84.2703 0C88.4719 0 92.4219 1.63629 95.3928 4.6072C98.3637 7.57812 99.9997 11.528 99.9997 15.7297C99.9997 19.9314 98.3634 23.8813 95.3928 26.8522C92.4216 29.8231 88.4717 31.4591 84.2703 31.4591ZM84.2703 3.125C77.3202 3.125 71.6656 8.77957 71.6656 15.7294C71.6656 22.6796 77.3202 28.3339 84.2703 28.3339C91.2204 28.3339 96.8747 22.6796 96.8747 15.7294C96.8747 8.7793 91.2201 3.125 84.2703 3.125Z" fill="white"/>
</svg>
