<svg width="80" height="80" viewBox="0 0 80 80" fill="none" xmlns="http://www.w3.org/2000/svg">
<path d="M40 6.68C21.5975 6.68 6.67999 21.5975 6.67999 40C6.67999 58.4025 21.5975 73.32 40 73.32C58.4025 73.32 73.32 58.4025 73.32 40C73.32 21.5975 58.4025 6.68 40 6.68ZM40 70.655C23.0975 70.655 9.34499 56.905 9.34499 40C9.34499 23.095 23.095 9.345 40 9.345C56.905 9.345 70.655 23.095 70.655 40C70.655 56.9025 56.905 70.655 40 70.655Z" fill="white"/>
<path d="M39.8875 22.5325C33.1225 22.5325 29.345 26.7125 29.2975 33.3375H32.2375C32.145 28.5325 34.6625 25.0075 39.75 25.0075C43.3875 25.0075 46.42 27.5725 46.42 31.305C46.42 33.73 45.1125 35.69 43.3875 37.3225C39.8425 40.6125 38.85 42.16 38.67 46.6675H41.6475C41.8225 42.58 41.7325 42.6625 45.3 39.095C47.68 36.855 49.3575 34.615 49.3575 31.1625C49.3575 25.7525 45.065 22.5325 39.89 22.5325H39.8875Z" fill="white"/>
<path d="M40 51.9975C38.53 51.9975 37.335 53.19 37.335 54.6625C37.335 56.135 38.53 57.3275 40 57.3275C41.47 57.3275 42.665 56.135 42.665 54.6625C42.665 53.1925 41.4725 51.9975 40 51.9975Z" fill="white"/>
</svg>
