<svg width="100" height="100" viewBox="0 0 100 100" fill="none" xmlns="http://www.w3.org/2000/svg">
<g clip-path="url(#clip0_0_148)">
<path d="M15.4428 0C6.92765 0 0 6.92765 0 15.4428C0 23.9579 6.92765 30.8855 15.4428 30.8855C23.9579 30.8855 30.8855 23.9579 30.8855 15.4428C30.8855 6.92765 23.9579 0 15.4428 0ZM15.4428 27.6458C8.71404 27.6458 3.23974 22.1715 3.23974 15.4428C3.23974 8.71404 8.71404 3.23974 15.4428 3.23974C22.1715 3.23974 27.6458 8.71404 27.6458 15.4428C27.6458 22.1715 22.1715 27.6458 15.4428 27.6458Z" fill="white"/>
<path d="M15.4428 34.5572C6.92765 34.5572 0 41.4849 0 50C0 58.5151 6.92765 65.4428 15.4428 65.4428C23.9579 65.4428 30.8855 58.5151 30.8855 50C30.8855 41.4849 23.9579 34.5572 15.4428 34.5572ZM15.4428 62.203C8.71404 62.203 3.23974 56.7287 3.23974 50C3.23974 43.2713 8.71404 37.797 15.4428 37.797C22.1715 37.797 27.6458 43.2713 27.6458 50C27.6458 56.7287 22.1715 62.203 15.4428 62.203Z" fill="white"/>
<path d="M15.4428 69.1145C6.92765 69.1145 0 76.0421 0 84.5572C0 93.0724 6.92765 100 15.4428 100C23.9579 100 30.8855 93.0724 30.8855 84.5572C30.8855 76.0421 23.9579 69.1145 15.4428 69.1145ZM15.4428 96.7603C8.71404 96.7603 3.23974 91.286 3.23974 84.5572C3.23974 77.8285 8.71404 72.3542 15.4428 72.3542C22.1715 72.3542 27.6458 77.8285 27.6458 84.5572C27.6458 91.286 22.1715 96.7603 15.4428 96.7603Z" fill="white"/>
<path d="M19.4808 10.8417L13.7149 16.6078L11.4048 14.2974C10.7719 13.6648 9.74645 13.6648 9.11383 14.2974C8.48122 14.93 8.48122 15.9557 9.11383 16.5881L12.5696 20.0438C12.8858 20.3603 13.3004 20.5184 13.7149 20.5184C14.1294 20.5184 14.5441 20.3603 14.8605 20.0438L21.7719 13.1324C22.4045 12.4998 22.4045 11.4741 21.7719 10.8417C21.1391 10.2091 20.1136 10.2091 19.4808 10.8417Z" fill="white"/>
<path d="M19.4808 45.3989L13.7149 51.165L11.4048 48.8546C10.7719 48.222 9.74645 48.222 9.11383 48.8546C8.48122 49.4873 8.48122 50.513 9.11383 51.1454L12.5696 54.6011C12.8858 54.9175 13.3004 55.0756 13.7149 55.0756C14.1294 55.0756 14.5441 54.9175 14.8605 54.6011L21.7719 47.6896C22.4045 47.057 22.4045 46.0313 21.7719 45.3989C21.1391 44.7663 20.1136 44.7663 19.4808 45.3989Z" fill="white"/>
<path d="M37.905 11.8791H69.0065C69.9013 11.8791 70.6264 11.1538 70.6264 10.2592C70.6264 9.36458 69.9013 8.63931 69.0065 8.63931H37.905C37.0101 8.63931 36.2851 9.36458 36.2851 10.2592C36.2851 11.1538 37.0101 11.8791 37.905 11.8791Z" fill="white"/>
<path d="M37.905 22.2462H98.3801C99.2749 22.2462 100 21.521 100 20.6264C100 19.7318 99.2749 19.0065 98.3801 19.0065H37.905C37.0101 19.0065 36.2851 19.7318 36.2851 20.6264C36.2851 21.521 37.0101 22.2462 37.905 22.2462Z" fill="white"/>
<path d="M37.905 46.4363H69.0065C69.9013 46.4363 70.6264 45.711 70.6264 44.8164C70.6264 43.9218 69.9013 43.1965 69.0065 43.1965H37.905C37.0101 43.1965 36.2851 43.9218 36.2851 44.8164C36.2851 45.711 37.0101 46.4363 37.905 46.4363Z" fill="white"/>
<path d="M98.3801 53.5637H37.905C37.0101 53.5637 36.2851 54.289 36.2851 55.1836C36.2851 56.0782 37.0101 56.8035 37.905 56.8035H98.3801C99.2749 56.8035 100 56.0782 100 55.1836C100 54.289 99.2749 53.5637 98.3801 53.5637Z" fill="white"/>
<path d="M37.905 80.9935H69.0065C69.9013 80.9935 70.6264 80.2683 70.6264 79.3737C70.6264 78.4791 69.9013 77.7538 69.0065 77.7538H37.905C37.0101 77.7538 36.2851 78.4791 36.2851 79.3737C36.2851 80.2683 37.0101 80.9935 37.905 80.9935Z" fill="white"/>
<path d="M98.3801 88.1209H37.905C37.0101 88.1209 36.2851 88.8462 36.2851 89.7408C36.2851 90.6354 37.0101 91.3607 37.905 91.3607H98.3801C99.2749 91.3607 100 90.6354 100 89.7408C100 88.8462 99.2749 88.1209 98.3801 88.1209Z" fill="white"/>
</g>
<defs>
<clipPath id="clip0_0_148">
<rect width="100" height="100" fill="white"/>
</clipPath>
</defs>
</svg>
