<svg width="99" height="97" viewBox="0 0 99 97" fill="none" xmlns="http://www.w3.org/2000/svg">
<path d="M88.2044 0H9.83444C4.41159 0 0 4.52162 0 10.0791V29.7505C0 35.3079 4.41159 39.8295 9.83444 39.8295H22.3956V44.8533C22.3956 49.312 25.3827 53.0797 29.4117 54.1472V60.3016C23.1462 68.1199 25.8423 76.6131 27.6192 80.4437C27.6203 80.4462 27.6214 80.4479 27.6225 80.4504C25.5158 81.2164 23.9967 83.257 23.9967 85.6771V95.2283C23.9967 96.0649 24.6646 96.7492 25.4807 96.7492H65.3256C66.142 96.7492 66.8096 96.0649 66.8096 95.2283V85.6771C66.8096 83.0341 65.0043 80.8293 62.5921 80.262C62.5921 80.2597 62.5917 80.2578 62.5917 80.2555C62.4997 78.3871 62.9287 73.9286 67.8306 68.2766C71.4766 64.0693 72.1812 58.967 69.8374 53.7547C73.2534 52.3105 75.6585 48.8724 75.6585 44.8533V39.8295H88.2044C93.6273 39.8295 98.0392 35.3079 98.0392 29.7505V10.0791C98.0392 4.52162 93.6273 0 88.2044 0ZM94.9755 29.7505C94.9755 33.5812 91.9424 36.6897 88.2044 36.6897H75.6585V26.0297H80.1161C83.5015 26.0297 86.2436 23.2195 86.2436 19.75C86.2436 16.2647 83.5015 13.4545 80.1161 13.4545C80.4608 13.453 76.329 13.4055 17.9534 13.4545C14.5677 13.4545 11.8106 16.2647 11.8106 19.75C11.8106 23.2195 14.5677 26.0297 17.9534 26.0297H22.3956V36.6897H9.83444C6.11212 36.6897 3.06373 33.5812 3.06373 29.7505V10.0791C3.06373 6.24852 6.11212 3.13988 9.83444 3.13988H88.2044C91.9424 3.13988 94.9755 6.24852 94.9755 10.0791V29.7505ZM72.5948 44.8533C72.5948 48.1658 70.159 50.9132 67.034 51.29H64.8282C64.8282 35.332 64.8282 27.3338 64.8282 16.5472H72.5948C72.5948 16.9967 72.5948 46.0401 72.5948 44.8533ZM59.528 80.0512H30.8362C29.519 77.6807 25.827 69.6112 31.8624 62.2012L31.8778 62.1855C32.3065 61.856 32.4754 61.2644 32.4754 60.9451C32.4754 60.628 32.4754 44.1693 32.4754 44.5708C32.4754 41.4077 35.0067 38.9031 38.0206 38.9031C41.0697 38.9031 43.5508 41.4449 43.5508 44.5708V58.0408C43.5508 61.3875 45.4884 64.4712 48.7283 65.3253C49.4711 65.5157 50.3722 65.0585 50.5821 64.1793C50.7964 63.3315 50.2908 62.4837 49.4639 62.264C47.7005 61.8241 46.6145 60.0263 46.6145 58.0408V54.477C67.7964 54.477 66.5284 54.4943 66.789 54.4456C68.9488 58.7943 68.5355 62.7192 65.5328 66.1889C60.2939 72.2486 59.4973 77.3824 59.528 80.0512ZM25.4594 16.5472H53.2779C53.2779 17.2006 53.2779 53.3213 53.2779 51.29H46.6145V44.5708C46.6145 39.7695 42.7847 35.7633 38.0206 35.7633C33.2598 35.7633 29.4117 39.7504 29.4117 44.5708V50.8663C27.0986 49.9084 25.4594 47.5692 25.4594 44.8533C25.4594 34.1142 25.4594 26.6756 25.4594 16.5472Z" fill="white"/>
<path d="M38.0129 40.3725C35.7518 40.3654 33.9152 42.2546 33.9152 44.5708V46.9883C33.9152 47.8362 34.5738 48.5271 35.401 48.5271H40.6249C41.4365 48.5271 42.1108 47.8362 42.1108 46.9883V44.7433C42.1108 42.4455 40.4473 40.3801 38.0129 40.3725Z" fill="white"/>
<path d="M17.5709 64.924H15.7084V54.4327C15.7084 53.1769 14.7237 52.1671 13.5097 52.1671H7.63469C6.40875 52.1671 5.42366 53.1769 5.42366 54.4327V64.924H3.56157C2.98487 64.924 2.46802 65.2443 2.21558 65.7738C1.96351 66.3156 2.03569 66.9313 2.39584 67.3868L8.83595 75.7233C9.25669 76.2651 9.89359 76.5851 10.566 76.5851C11.2512 76.5851 11.8757 76.2651 12.2965 75.7233L18.7486 67.3868C19.0967 66.9313 19.1693 66.3033 18.9165 65.7738C18.6644 65.2443 18.1475 64.924 17.5709 64.924Z" fill="white"/>
<path d="M91.5097 82.1094H89.6476V71.6181C89.6476 70.3621 88.6625 69.3525 87.4485 69.3525H81.5732C80.348 69.3525 79.3625 70.3621 79.3625 71.6181V82.1094H77.5004C76.9237 82.1094 76.4069 82.4295 76.1544 82.9592C75.9024 83.5008 75.9745 84.1167 76.3347 84.572L82.7748 92.9085C83.1955 93.4505 83.8324 93.7705 84.5049 93.7705C85.1896 93.7705 85.8146 93.4505 86.2353 92.9085L92.6874 84.572C93.036 84.1167 93.1078 83.4885 92.8553 82.9592C92.6029 82.4295 92.0864 82.1094 91.5097 82.1094Z" fill="white"/>
</svg>
